<svg xmlns="http://www.w3.org/2000/svg" width="21" height="21" viewBox="0 0 21 21">
  <defs>
    <style>
      .cls-1 {
        fill: #afc1d3;
        fill-rule: evenodd;
      }
    </style>
  </defs>
  <path id="形状_720_拷贝_2" data-name="形状 720 拷贝 2" class="cls-1" d="M1643.74,207a1.983,1.983,0,0,0-1.74,2v10.159a2.071,2.071,0,0,0,2,1.841h5v-1h-5a1.56,1.56,0,0,1-1-1V209h12v5a0.825,0.825,0,0,1,.53.021A2.74,2.74,0,0,1,1656,214v-5a2.061,2.061,0,0,0-1.83-2h-10.43Zm1.25,4.006v1h1v-1h-1Zm2,0v1h6.02v-1h-6.02Zm8.5,4.155a0.6,0.6,0,0,0-.43.18l-0.71.706,1.76,1.773,0.7-.723a0.614,0.614,0,0,0,0-.869l-0.87-.887A0.635,0.635,0,0,0,1655.49,215.161ZM1645,216v1h1v-1h-1Zm2,0v1h4l1-1h-5Zm6.75,0.608-2.86,2.841a0.289,0.289,0,0,0-.09.127L1650,222c-0.03.091-.07-0.068,0,0,0.05,0.049-.07,0,0,0,0.03,0,.49-0.011.51-0.018l2.08-.615a0.247,0.247,0,0,0,.13-0.073l2.86-2.84Zm-2.48,3.221,0.89,0.181,0.18,0.905-1.18.343-0.23-.254Zm-6.28-5.823v1h1v-1h-1Zm2,0v1h6.02v-1h-6.02Z" transform="translate(-1639 -204.016)"/>
</svg>
