<svg 
 xmlns="http://www.w3.org/2000/svg"
 xmlns:xlink="http://www.w3.org/1999/xlink"
 width="16px" height="13px">
<defs>
<filter id="Filter_0">
    <feFlood flood-color="rgb(175, 193, 211)" flood-opacity="1" result="floodOut" />
    <feComposite operator="atop" in="floodOut" in2="SourceGraphic" result="compOut" />
    <feBlend mode="normal" in="compOut" in2="SourceGraphic" />
</filter>

</defs>
<g filter="url(#Filter_0)">
<path fill-rule="evenodd"  fill="rgb(87, 93, 102)"
 d="M1.000,-0.000 L-0.000,1.000 L-0.000,12.000 C0.937,12.824 1.000,13.000 1.000,13.000 C1.000,13.000 1.780,12.997 2.056,12.997 L12.000,13.000 C12.045,13.000 12.945,12.031 13.000,12.000 L16.000,5.000 L15.849,5.430 C16.055,4.919 16.061,4.327 15.763,3.878 C15.462,3.422 15.554,3.000 15.000,3.000 L13.000,3.000 C13.000,1.841 12.146,1.000 11.000,1.000 L7.000,1.000 L5.539,0.002 L1.000,-0.000 ZM4.000,4.000 L14.000,4.000 C14.210,4.000 14.611,4.657 14.616,4.665 C14.622,4.674 14.654,4.711 14.573,4.905 L14.573,4.950 L12.000,11.000 C11.821,11.383 11.413,12.000 11.000,12.000 L2.000,12.000 C1.788,12.000 1.824,11.540 1.818,11.532 C1.813,11.524 1.780,11.485 1.861,11.291 L1.861,11.270 L3.003,5.452 C3.006,5.444 3.022,5.438 3.025,5.430 C3.203,5.048 3.585,4.000 4.000,4.000 Z"/>
</g>
</svg>