<svg 
 xmlns="http://www.w3.org/2000/svg"
 xmlns:xlink="http://www.w3.org/1999/xlink"
 width="15px" height="15px">
<defs>
<filter id="Filter_0">
    <feFlood flood-color="rgb(175, 193, 211)" flood-opacity="1" result="floodOut" />
    <feComposite operator="atop" in="floodOut" in2="SourceGraphic" result="compOut" />
    <feBlend mode="normal" in="compOut" in2="SourceGraphic" />
</filter>

</defs>
<g filter="url(#Filter_0)">
<path fill-rule="evenodd"  fill="rgb(87, 93, 102)"
 d="M2.000,-0.000 C1.021,-0.000 -0.000,1.021 -0.000,2.000 L-0.000,13.222 C-0.000,14.201 1.021,15.000 2.000,15.000 L13.000,15.000 C13.979,15.000 15.000,13.979 15.000,13.000 L15.000,3.000 L13.000,-0.000 L2.000,-0.000 ZM2.000,1.000 L13.000,1.000 L13.000,6.000 L2.000,6.000 L2.000,1.000 ZM9.000,2.000 L9.000,5.000 L11.000,5.000 L11.000,2.000 L9.000,2.000 ZM3.000,8.000 L12.000,8.000 C12.535,8.000 13.000,8.465 13.000,9.000 L13.000,12.000 C13.000,12.535 12.535,13.000 12.000,13.000 L3.000,13.000 C2.465,13.000 2.000,12.535 2.000,12.000 L2.000,9.000 C2.000,8.465 2.465,8.000 3.000,8.000 Z"/>
</g>
</svg>